<svg xmlns="http://www.w3.org/2000/svg" xml:space="preserve" width="26mm" height="13.829mm" version="1.0" shape-rendering="geometricPrecision" text-rendering="geometricPrecision" image-rendering="optimizeQuality" fill-rule="evenodd" clip-rule="evenodd"
         viewBox="0 0 144 77"
         xmlns:xlink="http://www.w3.org/1999/xlink">
 <g id="Слой_x0020_1">
     <metadata id="CorelCorpID_0Corel-Layer"/>
     <polygon fill="#EE7237" points="72,77 94,64 116,77 144,61 144,29 94,0 72,13 50,0 0,29 0,61 28,77 32,74 50,64 "/>
     <polygon fill="#62923B" points="116,45 127,38 138,32 138,45 138,57 127,64 116,70 113,56 "/>
     <polygon fill="#ABC92B" points="116,70 116,57 116,45 105,38 94,32 89,45 94,57 105,64 "/>
     <polygon fill="#E31F25" points="28,70 17,64 5,57 5,45 5,32 17,38 28,45 33,56 "/>
     <path fill="#812227" d="M50 57l-11 -6 0 0 0 -13 11 -6 4 13 -4 13 -11 6 0 -13 0 0 11 6zm-11 -6l0 0 -11 -6 11 6 0 13 -11 6 0 -13 0 -13 11 -6 0 13z"/>
     <polygon fill="#F9B123" points="94,57 94,45 94,32 83,38 72,45 72,45 70,57 72,70 83,64 "/>
     <polygon fill="#FFCD00" points="72,70 61,64 50,57 50,45 50,32 61,38 72,45 72,57 "/>
 </g>
</svg>