<?xml version="1.0" encoding="UTF-8"?>
<!DOCTYPE svg PUBLIC "-//W3C//DTD SVG 1.1//EN" "http://www.w3.org/Graphics/SVG/1.1/DTD/svg11.dtd">
<svg xmlns="http://www.w3.org/2000/svg" version="1.1" width="30px" height="30px" style="shape-rendering:geometricPrecision; text-rendering:geometricPrecision; image-rendering:optimizeQuality; fill-rule:evenodd; clip-rule:evenodd" xmlns:xlink="http://www.w3.org/1999/xlink">
<g><path style="opacity:1" fill="#f87c4c" d="M 12.5,-0.5 C 13.8333,-0.5 15.1667,-0.5 16.5,-0.5C 16.5,0.166667 16.8333,0.5 17.5,0.5C 16.1979,2.0276 14.5313,3.0276 12.5,3.5C 12.1583,4.33825 11.4916,4.67158 10.5,4.5C 9.95691,4.44001 9.62358,4.10667 9.5,3.5C 10.1925,2.48224 10.8592,1.48224 11.5,0.5C 12.1667,0.5 12.5,0.166667 12.5,-0.5 Z"/></g>
<g><path style="opacity:1" fill="#fb976f" d="M 17.5,0.5 C 20.5,1.5 22.5,3.5 23.5,6.5C 22.8826,6.38929 22.3826,6.05596 22,5.5C 21.8171,8.36469 21.3171,11.0314 20.5,13.5C 21.867,6.87163 19.2003,3.5383 12.5,3.5C 14.5313,3.0276 16.1979,2.0276 17.5,0.5 Z"/></g>
<g><path style="opacity:1" fill="#f98f66" d="M 11.5,0.5 C 10.8592,1.48224 10.1925,2.48224 9.5,3.5C 9.62358,4.10667 9.95691,4.44001 10.5,4.5C 10.1667,5.5 9.5,6.16667 8.5,6.5C 8.63101,5.76109 8.46434,5.09442 8,4.5C 7.2917,5.38053 6.45837,6.0472 5.5,6.5C 6.5,3.5 8.5,1.5 11.5,0.5 Z"/></g>
<g><path style="opacity:1" fill="#f67543" d="M 8.5,6.5 C 8.5,8.83333 8.5,11.1667 8.5,13.5C 8.8859,16.2617 10.2192,17.2617 12.5,16.5C 12.0576,15.2613 11.3909,14.2613 10.5,13.5C 10.1667,13.5 9.83333,13.5 9.5,13.5C 9.5,12.5 9.5,11.5 9.5,10.5C 11.9726,10.0882 13.3059,11.0882 13.5,13.5C 14.1667,16.1667 14.8333,16.1667 15.5,13.5C 15.6941,11.0882 17.0274,10.0882 19.5,10.5C 19.5,11.5 19.5,12.5 19.5,13.5C 19.1667,13.5 18.8333,13.5 18.5,13.5C 16.9122,14.6353 16.5788,15.9686 17.5,17.5C 19.2882,16.7174 20.2882,15.3841 20.5,13.5C 21.3171,11.0314 21.8171,8.36469 22,5.5C 22.3826,6.05596 22.8826,6.38929 23.5,6.5C 25.272,10.9369 24.4387,14.9369 21,18.5C 21.2008,22.7288 20.0341,26.3955 17.5,29.5C 15.5,29.5 13.5,29.5 11.5,29.5C 8.96586,26.3955 7.79919,22.7288 8,18.5C 4.69429,14.9951 3.86095,10.9951 5.5,6.5C 6.45837,6.0472 7.2917,5.38053 8,4.5C 8.46434,5.09442 8.63101,5.76109 8.5,6.5 Z"/></g>
<g><path style="opacity:1" fill="#fdc9b6" d="M 18.5,13.5 C 18.8333,14.8333 19.1667,14.8333 19.5,13.5C 19.8333,13.5 20.1667,13.5 20.5,13.5C 20.2882,15.3841 19.2882,16.7174 17.5,17.5C 16.5788,15.9686 16.9122,14.6353 18.5,13.5 Z"/></g>
<g><path style="opacity:1" fill="#fab397" d="M 13.5,13.5 C 14.1667,13.5 14.8333,13.5 15.5,13.5C 14.8333,16.1667 14.1667,16.1667 13.5,13.5 Z"/></g>
<g><path style="opacity:1" fill="#fdcbb8" d="M 8.5,13.5 C 8.83333,13.5 9.16667,13.5 9.5,13.5C 9.83333,14.8333 10.1667,14.8333 10.5,13.5C 11.3909,14.2613 12.0576,15.2613 12.5,16.5C 10.2192,17.2617 8.8859,16.2617 8.5,13.5 Z"/></g>
</svg>
