<svg xmlns="http://www.w3.org/2000/svg" xmlns:v="https://svgstorm.com"
viewBox = "0 0 200 287"
width="32"
height="32">
    <rect width="198" height="280" fill="None" stroke="#ccc" stroke-width="10" x="2" y="2" />

    <g fill="#F95B0D" fill-opacity="1.00" stroke="None">
<path d="
M 33.00 163.00
C 44.85 162.38 41.65 178.67 42.00 187.00 C 42.35 195.33 41.32 211.38 42.00 220.00 C 42.68 228.62 45.83 237.33 51.00 244.00
C 54.14 247.08 60.32 250.92 63.00 255.00
C 63.68 256.03 64.13 256.27 65.00 257.00
C 79.37 264.94 94.53 264.00 112.00 264.00
C 112.50 264.00 113.51 264.08 114.00 264.00
C 125.31 257.51 134.45 248.79 144.00 240.00
C 146.33 233.62 146.81 228.68 148.98 221.98 C 151.14 215.27 150.35 207.85 150.00 200.00 C 149.65 192.15 151.59 185.81 150.00 177.00 C 148.41 168.19 155.09 167.38 160.00 163.00
C 160.07 161.04 161.01 160.07 163.00 160.00
C 168.80 149.05 177.25 141.36 181.07 129.07 C 184.90 116.78 185.58 95.90 183.99 83.01 C 182.41 70.12 177.30 57.98 170.00 51.00
C 170.58 42.64 162.85 40.34 158.77 34.23 C 154.69 28.12 150.03 25.57 144.22 21.78 C 138.42 17.98 131.72 16.08 125.08 13.92 C 118.45 11.76 110.75 7.34 103.00 9.00 C 95.25 10.66 82.75 6.52 76.07 10.07 C 69.40 13.63 61.91 13.74 56.30 17.30 C 50.70 20.86 44.88 23.63 40.30 28.30 C 35.71 32.96 31.49 36.93 27.25 42.25 C 23.02 47.58 19.78 52.24 16.33 58.33 C 12.87 64.41 10.29 72.29 9.78 79.78 C 9.27 87.26 8.45 98.37 9.00 106.00 C 9.56 113.63 10.05 122.64 13.03 128.97 C 16.01 135.31 17.03 142.23 22.03 146.97 C 27.02 151.71 28.19 158.51 33.00 163.00
M 163.00 117.00
C 161.89 128.42 157.07 132.52 150.70 141.70 C 144.33 150.88 139.07 151.68 130.26 159.26 C 121.44 166.83 111.11 155.97 119.75 146.75 C 128.40 137.54 122.97 129.45 132.30 121.30 C 141.63 113.15 130.07 96.85 120.78 103.78 C 111.49 110.71 113.64 119.76 107.00 128.00
C 104.35 131.29 98.93 148.59 92.75 141.25 C 86.58 133.90 88.62 126.65 82.75 119.25 C 76.87 111.86 78.77 104.12 68.00 102.00 C 57.22 99.88 52.83 112.67 57.31 119.69 C 61.79 126.72 64.67 134.76 68.30 140.70 C 71.94 146.63 78.92 163.15 67.00 160.00
C 58.89 157.86 51.59 148.53 46.30 142.70 C 41.02 136.87 31.37 126.29 32.00 118.00
C 32.04 117.50 32.00 117.00 32.00 117.00
C 25.32 101.70 27.55 77.75 35.99 64.99 C 44.43 52.23 53.48 38.52 68.77 32.77 C 84.06 27.02 107.70 25.66 123.67 32.33 C 139.64 38.99 146.24 50.30 156.78 64.22 C 167.32 78.14 164.61 100.38 163.00 117.00 Z"/>
</g>
</svg>